#!OML:ASF I:\Actors\actors\Patient Classification 2\Patient 1\Session 1\actor1.ASF
:FULLY-SPECIFIED
:DEGREES
124
root -0.714349 18.6611 5.7805 0.00469001 -3.09148 -3.98743
lowerback 1.84168 1.05839 2.11386
upperback -1.79586 1.4999 0.786325
thorax -2.8437 0.712982 -0.440315
lowerneck -8.68259 -1.91382 -3.56457
upperneck 21.2751 -2.90747 3.9618
head 8.11192 -1.28846 1.63878
rclavicle -9.405e-015 -3.37934e-015
rhumerus -53.4688 1.66313 -92.5831
rradius 65.5205
rwrist 4.02155
rhand -15.1081 -40.1407
rfingers 7.12502
rthumb 11.0605 -69.8292
lclavicle -9.405e-015 -3.37934e-015
lhumerus -43.6422 6.22791 87.7645
lradius 38.5924
lwrist -6.35992
lhand -10.2826 -29.1831
lfingers 7.12502
lthumb 15.7115 0.199089
rfemur 0 0 0
rtibia 0
rfoot 0 0
rtoes 0
lfemur -3.1722 -6.62207 -10.6952
ltibia 22.8449
lfoot -24.7052 15.1759
ltoes -54.9022
125
root -0.715277 18.662 5.77311 -0.00104121 -2.98309 -3.93646
lowerback 2.01545 1.09225 2.0329
upperback -1.79169 1.54673 0.760721
thorax -2.93762 0.736838 -0.426999
lowerneck -8.50531 -2.06812 -3.7305
upperneck 21.029 -3.09489 3.98171
head 8.0084 -1.39156 1.65523
rclavicle 1.41137e-014 -1.03368e-014
rhumerus -53.4053 2.12921 -92.7372
rradius 66.9964
rwrist 4.21291
rhand -16.0287 -40.2665
rfingers 7.12502
rthumb 10.1725 -70.0006
lclavicle 1.41137e-014 -1.03368e-014
lhumerus -44.0839 6.24526 87.5631
lradius 39.6215
lwrist -6.15534
lhand -10.0641 -29.2528
lfingers 7.12502
lthumb 15.9219 0.112704
rfemur 0 0 0
rtibia 0
rfoot 0 0
rtoes 0
lfemur -3.23657 -6.58349 -10.7242
ltibia 22.8504
lfoot -24.57 15.068
ltoes -54.9001
126
root -0.716553 18.6633 5.76486 0.0272403 -2.88456 -3.88195
lowerback 2.13535 1.13348 1.90997
upperback -1.77346 1.60028 0.750932
thorax -2.98817 0.765651 -0.373141
lowerneck -8.38577 -2.23371 -3.9423
upperneck 20.8089 -3.29608 4.03124
head 7.92667 -1.50113 1.68796
rclavicle 7.96381e-015 -6.36111e-015
rhumerus -53.2127 2.60148 -92.8208
rradius 68.4783
rwrist 3.57123
rhand -16.1132 -40.6277
rfingers 7.12502
rthumb 10.091 -70.3658
lclavicle 7.96381e-015 -6.36111e-015
lhumerus -44.9642 5.56082 87.7302
lradius 42.1397
lwrist -5.34771
lhand -9.5536 -27.9907
lfingers 7.12502
lthumb 16.4135 1.33483
rfemur 0 0 0
rtibia 0
rfoot 0 0
rtoes 0
lfemur -3.33987 -6.55948 -10.7571
ltibia 22.8665
lfoot -24.4755 14.9927
ltoes -54.9384
127
root -0.71732 18.6649 5.75655 0.06803 -2.82027 -3.91207
lowerback 2.20952 1.20902 1.86531
upperback -1.73636 1.70135 0.769442
thorax -2.99156 0.817341 -0.335062
lowerneck -8.29081 -2.42017 -4.20454
upperneck 20.6377 -3.52826 4.1254
head 7.86959 -1.62457 1.74124
rclavicle -1.77167e-014 3.97569e-016
rhumerus -52.8877 2.96402 -92.7853
rradius 69.8958
rwrist 2.54868
rhand -15.9104 -40.7276
rfingers 7.12502
rthumb 10.2866 -70.4561
lclavicle -1.77167e-014 3.97569e-016
lhumerus -44.8119 5.75627 87.536
lradius 42.0508
lwrist -5.44465
lhand -9.53348 -28.0333
lfingers 7.12502
lthumb 16.4329 1.29065
rfemur 0 0 0
rtibia 0
rfoot 0 0
rtoes 0
lfemur -3.44005 -6.62136 -10.7121
ltibia 22.8916
lfoot -24.4891 15.0327
ltoes -55.0046
128
root -0.718013 18.6659 5.74682 0.0613673 -2.76572 -4.00145
lowerback 2.37473 1.30401 1.86564
upperback -1.6926 1.83323 0.822503
thorax -3.0389 0.883417 -0.290502
lowerneck -8.15434 -2.60721 -4.4876
upperneck 20.4532 -3.75372 4.19405
head 7.80133 -1.74916 1.79074
rclavicle 2.03009e-014 9.93923e-016
rhumerus -52.5032 3.24245 -92.6232
rradius 71.2522
rwrist 1.9405
rhand -16.1004 -40.1898
rfingers 7.12502
rthumb 10.1033 -69.9273
lclavicle 2.03009e-014 9.93923e-016
lhumerus -44.2063 6.25335 87.2624
lradius 40.6359
lwrist -5.8562
lhand -9.86458 -28.7262
lfingers 7.12502
lthumb 16.114 0.623837
rfemur 0 0 0
rtibia 0
rfoot 0 0
rtoes 0
lfemur -3.48749 -6.64539 -10.601
ltibia 22.9173
lfoot -24.481 15.0352
ltoes -55.0478
129
root -0.720162 18.6665 5.73374 0.0131726 -2.65256 -4.03802
lowerback 2.66494 1.3836 1.81504
upperback -1.65486 1.9449 0.836249
thorax -3.16378 0.939299 -0.260865
lowerneck -8.01835 -2.80838 -4.77079
upperneck 20.2571 -4.01012 4.31581
head 7.73291 -1.88364 1.85504
rclavicle -2.53823e-014 -7.35503e-015
rhumerus -52.0816 3.46518 -92.4408
rradius 72.5713
rwrist 2.52327
rhand -16.9898 -39.5272
rfingers 7.12502
rthumb 9.24522 -69.3045
lclavicle -2.53823e-014 -7.35503e-015
lhumerus -44.7654 5.74038 87.3764
lradius 42.3304
lwrist -5.32425
lhand -9.43265 -27.6747
lfingers 7.12502
lthumb 16.5299 1.64123
rfemur 0 0 0
rtibia 0
rfoot 0 0
rtoes 0
lfemur -3.53118 -6.57079 -10.523
ltibia 22.9473
lfoot -24.3341 14.8821
ltoes -55.0775
130
root -0.723386 18.6679 5.7192 -0.00270475 -2.52773 -3.9898
lowerback 2.95912 1.46385 1.68801
upperback -1.63606 2.05233 0.787624
thorax -3.31106 0.993776 -0.253631
lowerneck -7.84182 -3.02485 -5.04122
upperneck 20.0171 -4.31183 4.54109
head 7.6481 -2.0303 1.94765
rclavicle 2.13694e-015 -4.96962e-015
rhumerus -51.6059 3.5854 -92.2627
rradius 73.8466
rwrist 4.00193
rhand -18.4048 -39.1996
rfingers 7.12502
rthumb 7.87968 -69.0328
lclavicle 2.13694e-015 -4.96962e-015
lhumerus -44.6645 5.40389 87.3306
lradius 42.4239
lwrist -4.95315
lhand -9.32721 -27.5046
lfingers 7.12502
lthumb 16.6314 1.80281
rfemur 0 0 0
rtibia 0
rfoot 0 0
rtoes 0
lfemur -3.62836 -6.4945 -10.5326
ltibia 22.9809
lfoot -24.1496 14.7442
ltoes -55.1305
131
root -0.726068 18.6698 5.70451 0.00990819 -2.46605 -3.98984
lowerback 3.22813 1.56927 1.60926
upperback -1.60823 2.19476 0.765863
thorax -3.43396 1.0652 -0.247861
lowerneck -7.5873 -3.2376 -5.32692
upperneck 19.6388 -4.59788 4.73507
head 7.50464 -2.1752 2.03483
rclavicle 3.8763e-015 -7.55382e-015
rhumerus -50.9362 3.75862 -92.0148
rradius 74.9467
rwrist 5.04809
rhand -19.7102 -38.9163
rfingers 7.12502
rthumb 6.61962 -68.7928
lclavicle 3.8763e-015 -7.55382e-015
lhumerus -44.0821 5.85769 86.9894
lradius 41.1034
lwrist -5.4022
lhand -9.57216 -28.2786
lfingers 7.12502
lthumb 16.3956 1.04842
rfemur 0 0 0
rtibia 0
rfoot 0 0
rtoes 0
lfemur -3.73338 -6.42874 -10.4986
ltibia 23.0066
lfoot -24.0518 14.6783
ltoes -55.1518
132
root -0.727664 18.6715 5.68852 -0.0181488 -2.38409 -4.03491
lowerback 3.56599 1.66669 1.60794
upperback -1.56487 2.33128 0.74842
thorax -3.57722 1.13176 -0.283546
lowerneck -7.2688 -3.44076 -5.56545
upperneck 19.1518 -4.86124 4.85009
head 7.31214 -2.31422 2.09153
rclavicle 2.49723e-014 -1.98785e-016
rhumerus -49.9935 4.15147 -91.7897
rradius 75.7395
rwrist 5.05147
rhand -20.4914 -39.2006
rfingers 7.12502
rthumb 5.86543 -69.0994
lclavicle 2.49723e-014 -1.98785e-016
lhumerus -44.57 5.18425 87.1448
lradius 42.6778
lwrist -4.76223
lhand -9.36051 -27.4966
lfingers 7.12502
lthumb 16.5994 1.81352
rfemur 0 0 0
rtibia 0
rfoot 0 0
rtoes 0
lfemur -3.80536 -6.35926 -10.4155
ltibia 23.0357
lfoot -23.9744 14.5707
ltoes -55.1509
133
root -0.729832 18.6739 5.6707 -0.0473243 -2.25708 -4.02364
lowerback 3.8843 1.7409 1.55049
upperback -1.49963 2.43113 0.682279
thorax -3.6874 1.18109 -0.335583
lowerneck -7.01411 -3.63419 -5.819
upperneck 18.718 -5.13096 5.08152
head 7.15383 -2.44671 2.18806
rclavicle 6.84565e-015 -8.74653e-015
rhumerus -48.8115 4.71197 -91.6501
rradius 76.2232
rwrist 4.2404
rhand -20.5431 -40.2364
rfingers 7.12502
rthumb 5.81545 -70.1366
lclavicle 6.84565e-015 -8.74653e-015
lhumerus -44.6125 4.75067 87.1438
lradius 43.1324
lwrist -4.22479
lhand -9.3979 -27.3754
lfingers 7.12502
lthumb 16.5634 1.9377
rfemur 0 0 0
rtibia 0
rfoot 0 0
rtoes 0
lfemur -3.90661 -6.27542 -10.3867
ltibia 23.082
lfoot -23.809 14.419
ltoes -55.1744
134
root -0.734131 18.6766 5.65289 -0.0482996 -2.08612 -4.04575
lowerback 4.1278 1.78917 1.49684
upperback -1.41328 2.49358 0.602838
thorax -3.73322 1.21223 -0.398477
lowerneck -6.93118 -3.83389 -6.09726
upperneck 18.4648 -5.42618 5.42856
head 7.09172 -2.58075 2.32183
rclavicle 2.58482e-014 1.82882e-014
rhumerus -47.4634 5.31864 -91.5099
rradius 76.4159
rwrist 3.14284
rhand -19.9328 -41.0942
rfingers 7.12502
rthumb 6.40468 -70.9773
lclavicle 2.58482e-014 1.82882e-014
lhumerus -43.7856 5.53785 86.5825
lradius 41.3057
lwrist -4.87118
lhand -9.79313 -28.4998
lfingers 7.12502
lthumb 16.1828 0.844698
rfemur 0 0 0
rtibia 0
rfoot 0 0
rtoes 0
lfemur -4.0484 -6.17645 -10.3047
ltibia 23.1197
lfoot -23.5616 14.2213
ltoes -55.2236
135
root -0.739675 18.6789 5.63665 -0.0532451 -1.85285 -4.10749
lowerback 4.38466 1.80996 1.4739
upperback -1.33859 2.52138 0.52793
thorax -3.79804 1.22522 -0.472395
lowerneck -6.87834 -4.04239 -6.31274
upperneck 18.2719 -5.72915 5.70283
head 7.05321 -2.71986 2.42025
rclavicle -4.00675e-015 1.98785e-015
rhumerus -46.091 5.86591 -91.2667
rradius 76.3655
rwrist 2.36708
rhand -19.1583 -41.2803
rfingers 7.12502
rthumb 7.15238 -71.1395
lclavicle -4.00675e-015 1.98785e-015
lhumerus -43.481 5.73755 86.2411
lradius 40.809
lwrist -5.08708
lhand -9.95301 -28.8582
lfingers 7.12502
lthumb 16.0289 0.498767
rfemur 0 0 0
rtibia 0
rfoot 0 0
rtoes 0
lfemur -4.19493 -6.10946 -10.1697
ltibia 23.1528
lfoot -23.3574 14.0024
ltoes -55.3079
136
root -0.766882 18.6759 5.63579 -0.247824 -1.10377 -4.15129
lowerback 4.55554 1.66557 1.08662
upperback -1.15732 2.30791 0.57124
thorax -3.72727 1.12961 -0.197765
lowerneck -6.75838 -4.25424 -6.64998
upperneck 17.9948 -6.01643 5.96321
head 6.97987 -2.8625 2.53667
rclavicle 2.04065e-015 -1.31198e-014
rhumerus -44.7537 6.40364 -90.8688
rradius 76.178
rwrist 2.13717
rhand -18.7681 -41.0752
rfingers 7.12502
rthumb 7.52898 -70.9212
lclavicle 2.04065e-015 -1.31198e-014
lhumerus -43.436 5.63639 86.1084
lradius 40.9885
lwrist -5.03472
lhand -9.9155 -28.8528
lfingers 7.12502
lthumb 16.065 0.501267
rfemur 0 0 0
rtibia 0
rfoot 0 0
rtoes 0
lfemur -4.21597 -5.85868 -9.88918
ltibia 23.1882
lfoot -22.8857 13.1912
ltoes -55.6015
137
root -0.778532 18.6767 5.62353 -0.305516 -0.727622 -4.16783
lowerback 4.76762 1.66234 0.889988
upperback -1.04109 2.29287 0.558828
thorax -3.73389 1.12648 -0.104208
lowerneck -6.67131 -4.50315 -7.08027
upperneck 17.7576 -6.35276 6.28197
head 6.93574 -3.02947 2.68235
rclavicle 2.29977e-014 8.74653e-015
rhumerus -43.4292 6.91756 -90.3935
rradius 75.9063
rwrist 2.33301
rhand -19.0675 -40.923
rfingers 7.12502
rthumb 7.24002 -70.7792
lclavicle 2.29977e-014 8.74653e-015
lhumerus -43.6106 5.09405 86.2011
lradius 41.8488
lwrist -4.58638
lhand -9.79563 -28.3566
lfingers 7.12502
lthumb 16.1804 0.988052
rfemur 0 0 0
rtibia 0
rfoot 0 0
rtoes 0
lfemur -4.32688 -5.79238 -9.76773
ltibia 23.2211
lfoot -22.6259 12.8717
ltoes -55.7506
138
root -0.782669 18.6791 5.60575 -0.282453 -0.536998 -4.21861
lowerback 5.003 1.76447 0.860321
upperback -0.966626 2.42667 0.48455
thorax -3.78665 1.19246 -0.18118
lowerneck -6.62318 -4.81923 -7.44448
upperneck 17.5498 -6.79562 6.63338
head 6.91754 -3.23992 2.81695
rclavicle 1.10046e-014 5.96354e-015
rhumerus -42.0496 7.36256 -89.905
rradius 75.5872
rwrist 2.4924
rhand -20.0685 -41.5134
rfingers 7.12502
rthumb 6.27368 -71.4005
lclavicle 1.10046e-014 5.96354e-015
lhumerus -44.1979 3.77996 86.5478
lradius 43.9907
lwrist -3.5833
lhand -9.4602 -27.0698
lfingers 7.12502
lthumb 16.5034 2.24835
rfemur 0 0 0
rtibia 0
rfoot 0 0
rtoes 0
lfemur -4.48547 -5.84795 -9.67248
ltibia 23.2425
lfoot -22.5126 12.8289
ltoes -55.8136
139
root -0.787079 18.6805 5.59025 -0.251302 -0.349275 -4.27893
lowerback 5.20035 1.87235 0.815448
upperback -0.878453 2.56684 0.425815
thorax -3.80481 1.26234 -0.233259
lowerneck -6.54791 -5.13461 -7.8313
upperneck 17.238 -7.23376 7.00452
head 6.86579 -3.44927 2.96201
rclavicle 2.34255e-014 1.19271e-015
rhumerus -40.6166 7.98211 -89.389
rradius 75.3369
rwrist 1.92264
rhand -21.2681 -42.9442
rfingers 7.12502
rthumb 5.11553 -72.8625
lclavicle 2.34255e-014 1.19271e-015
lhumerus -43.5217 4.09361 86.256
lradius 42.762
lwrist -4.16358
lhand -9.53606 -27.789
lfingers 7.12502
lthumb 16.4304 1.53517
rfemur 0 0 0
rtibia 0
rfoot 0 0
rtoes 0
lfemur -4.66018 -5.90814 -9.56737
ltibia 23.2931
lfoot -22.4383 12.7658
ltoes -55.8643
